<svg xmlns="http://www.w3.org/2000/svg" viewBox="0 0 192.76 192.76"><defs><style>.cls-1w{fill:transparent;}.cls-1{fill:#fff;}.cls-1,.cls-2,.cls-3{fill-rule:evenodd;}.cls-2{fill:#fab51d;}.cls-3{fill:#e40520;}.cls-4{fill:none;stroke:#fff;stroke-miterlimit:2.61;stroke-width:0.22px;}</style></defs><g id="Capa_2" data-name="Capa 2"><g id="Capa_1-2" data-name="Capa 1"><polygon class="cls-1w" points="0 0 192.76 0 192.76 192.76 0 192.76 0 0 0 0"/><polygon class="cls-2" points="133.83 152.37 136.72 152.29 139.57 152.08 142.37 151.72 145.14 151.23 147.84 150.61 150.51 149.85 153.11 148.97 155.66 147.97 158.16 146.83 160.57 145.6 162.91 144.25 165.2 142.79 167.39 141.22 169.5 139.56 171.54 137.81 173.49 135.94 175.36 133.99 177.12 131.95 178.78 129.84 180.35 127.64 181.8 125.36 183.16 123.02 184.39 120.6 185.52 118.11 186.52 115.56 187.41 112.95 188.16 110.29 188.79 107.59 189.28 104.81 189.64 102.02 189.85 99.16 189.92 96.28 189.85 93.4 189.64 90.57 189.28 87.78 188.79 85.04 188.16 82.34 187.41 79.69 186.52 77.09 185.52 74.56 184.39 72.08 183.16 69.66 181.8 67.34 180.35 65.06 178.78 62.87 177.12 60.77 175.36 58.73 173.49 56.78 171.54 54.93 169.5 53.18 167.39 51.51 165.2 49.95 162.91 48.49 160.57 47.15 158.16 45.92 155.66 44.79 153.11 43.79 150.51 42.9 147.84 42.15 145.14 41.52 142.37 41.03 139.57 40.67 136.72 40.47 133.83 40.39 130.96 40.47 128.11 40.67 125.31 41.03 122.55 41.52 119.85 42.15 117.19 42.9 114.6 43.79 112.05 44.79 109.58 45.92 107.18 47.15 104.84 48.49 102.57 49.95 100.38 51.51 98.27 53.18 96.25 54.93 94.3 56.78 92.45 58.73 90.69 60.77 89.03 62.87 87.48 65.06 86.03 67.34 84.69 69.66 83.44 72.08 82.33 74.56 81.33 77.09 80.46 79.69 79.7 82.34 79.08 85.04 78.59 87.78 78.23 90.57 78.02 93.4 77.94 96.28 78.02 99.16 78.23 102.02 78.59 104.81 79.08 107.59 79.7 110.29 80.46 112.95 81.33 115.56 82.33 118.11 83.44 120.6 84.69 123.02 86.03 125.36 87.48 127.64 89.03 129.84 90.69 131.95 92.45 133.99 94.3 135.94 96.25 137.81 98.27 139.56 100.38 141.22 102.57 142.79 104.84 144.25 107.18 145.6 109.58 146.83 112.05 147.97 114.6 148.97 117.19 149.85 119.85 150.61 122.55 151.23 125.31 151.72 128.11 152.08 130.96 152.29 133.83 152.37 133.83 152.37 133.83 152.37"/><polygon class="cls-3" points="58.93 152.37 61.8 152.29 64.65 152.08 67.44 151.72 70.2 151.23 72.9 150.61 75.56 149.85 78.15 148.97 80.7 147.97 83.18 146.83 85.58 145.6 87.92 144.25 90.18 142.79 92.37 141.22 94.49 139.56 96.51 137.81 98.45 135.94 100.31 133.99 102.06 131.95 103.72 129.84 105.27 127.64 106.73 125.36 108.07 123.02 109.31 120.6 110.43 118.11 111.43 115.56 112.3 112.95 113.05 110.29 113.68 107.59 114.17 104.81 114.53 102.02 114.73 99.16 114.81 96.28 114.73 93.4 114.53 90.57 114.17 87.78 113.68 85.04 113.05 82.34 112.3 79.69 111.43 77.09 110.43 74.56 109.31 72.08 108.07 69.66 106.73 67.34 105.27 65.06 103.72 62.87 102.06 60.77 100.31 58.73 98.45 56.78 96.51 54.93 94.49 53.18 92.37 51.51 90.18 49.95 87.92 48.49 85.58 47.15 83.18 45.92 80.7 44.79 78.15 43.79 75.56 42.9 72.9 42.15 70.2 41.52 67.44 41.03 64.65 40.67 61.8 40.47 58.93 40.39 56.04 40.47 53.19 40.67 50.39 41.03 47.61 41.52 44.91 42.15 42.25 42.9 39.64 43.79 37.09 44.79 34.6 45.92 32.18 47.15 29.84 48.49 27.56 49.95 25.37 51.51 23.25 53.18 21.21 54.93 19.27 56.78 17.4 58.73 15.64 60.77 13.98 62.87 12.41 65.06 10.96 67.34 9.6 69.66 8.37 72.08 7.24 74.56 6.23 77.09 5.35 79.69 4.59 82.34 3.97 85.04 3.48 87.78 3.12 90.57 2.91 93.4 2.83 96.28 2.91 99.16 3.12 102.02 3.48 104.81 3.97 107.59 4.59 110.29 5.35 112.95 6.23 115.56 7.24 118.11 8.37 120.6 9.6 123.02 10.96 125.36 12.41 127.64 13.98 129.84 15.64 131.95 17.4 133.99 19.27 135.94 21.21 137.81 23.25 139.56 25.37 141.22 27.56 142.79 29.84 144.25 32.18 145.6 34.6 146.83 37.09 147.97 39.64 148.97 42.25 149.85 44.91 150.61 47.61 151.23 50.39 151.72 53.19 152.08 56.04 152.29 58.93 152.37 58.93 152.37 58.93 152.37"/><polygon class="cls-2" points="89.82 61.86 119.57 61.86 119.57 58.82 92.39 58.82 89.82 61.86 89.82 61.86 89.82 61.86"/><polygon class="cls-2" points="85.37 68.63 119.57 68.63 119.57 65.58 87.16 65.58 85.37 68.63 85.37 68.63 85.37 68.63"/><polygon class="cls-2" points="82.04 75.37 119.57 75.37 119.57 72.33 83.37 72.33 82.04 75.37 82.04 75.37 82.04 75.37"/><polygon class="cls-2" points="79.76 82.13 119.57 82.13 119.57 79.09 80.7 79.09 79.76 82.13 79.76 82.13 79.76 82.13"/><polygon class="cls-2" points="81.08 114.8 119.67 114.8 119.67 111.76 80.14 111.76 81.08 114.8 81.08 114.8 81.08 114.8"/><polygon class="cls-2" points="83.93 121.56 119.67 121.56 119.67 118.52 82.52 118.52 83.93 121.56 83.93 121.56 83.93 121.56"/><polygon class="cls-2" points="87.94 128.31 119.67 128.31 119.67 125.27 86.03 125.27 87.94 128.31 87.94 128.31 87.94 128.31"/><polygon class="cls-2" points="93.45 135.07 119.67 135.07 119.67 132.01 90.79 132.01 93.45 135.07 93.45 135.07 93.45 135.07"/><polygon class="cls-2" points="78.42 88.87 119.57 88.87 119.57 85.83 79 85.83 78.42 88.87 78.42 88.87 78.42 88.87"/><polygon class="cls-2" points="103.5 108.06 119.19 108.06 119.19 105.02 104.06 105.02 103.5 108.06 103.5 108.06 103.5 108.06"/><polygon class="cls-2" points="104.74 101.32 119.19 101.32 119.19 98.26 105.31 98.26 104.74 101.32 104.74 101.32 104.74 101.32"/><polygon class="cls-2" points="77.38 98.26 81.46 98.26 81.46 101.32 77.57 101.32 77.38 98.26 77.38 98.26 77.38 98.26"/><polygon class="cls-1" points="69.77 94.58 69.5 94.56 69.24 94.52 68.99 94.48 68.75 94.44 68.52 94.41 68.28 94.37 68.03 94.33 67.77 94.29 67.5 94.25 67.2 94.23 66.86 94.22 66.5 94.2 66.1 94.2 65.67 94.22 65.18 94.25 64.63 94.29 64.25 94.35 63.89 94.41 63.57 94.52 63.29 94.63 63.02 94.76 62.78 94.92 62.59 95.1 62.42 95.27 62.31 95.48 62.21 95.69 62.17 95.92 62.17 96.14 62.23 96.39 62.31 96.63 62.46 96.88 62.65 97.12 63.02 97.48 63.48 97.77 64.01 98.01 64.57 98.22 65.18 98.41 65.8 98.62 66.42 98.84 67.03 99.09 67.59 99.41 68.12 99.81 68.6 100.28 68.99 100.86 69.3 101.58 69.48 102.43 69.56 103.45 69.48 104.64 69.35 105.53 69.13 106.3 68.82 107.02 68.44 107.64 68.01 108.19 67.52 108.66 66.99 109.08 66.41 109.44 65.8 109.72 65.18 109.97 64.54 110.16 63.88 110.31 63.23 110.42 62.61 110.48 61.99 110.52 61.4 110.53 60.59 110.53 59.83 110.52 59.17 110.52 58.55 110.5 57.98 110.48 57.47 110.44 57.02 110.4 56.59 110.34 56.19 110.31 55.83 110.23 55.47 110.17 55.15 110.08 54.83 110 54.53 109.89 54.22 109.78 53.9 109.67 54.75 105.49 54.92 105.53 55.13 105.58 55.4 105.66 55.72 105.74 56.06 105.81 56.43 105.89 56.85 105.98 57.3 106.06 57.77 106.13 58.27 106.21 58.77 106.27 59.3 106.32 59.85 106.34 60.4 106.36 60.95 106.36 61.49 106.34 62.04 106.23 62.48 106.08 62.82 105.87 63.08 105.6 63.27 105.34 63.42 105.04 63.52 104.73 63.59 104.45 63.63 103.9 63.46 103.43 63.14 103.05 62.67 102.73 62.1 102.45 61.44 102.17 60.7 101.9 59.97 101.6 59.21 101.26 58.49 100.86 57.83 100.37 57.23 99.79 56.75 99.07 56.41 98.22 56.24 97.2 56.26 95.99 56.36 95.25 56.49 94.56 56.68 93.91 56.91 93.31 57.21 92.74 57.55 92.25 57.94 91.78 58.42 91.36 58.96 91 59.57 90.7 60.25 90.42 61 90.21 61.85 90.04 62.78 89.91 63.8 89.83 64.91 89.81 65.61 89.81 66.25 89.83 66.84 89.85 67.37 89.87 67.84 89.91 68.28 89.95 68.65 89.98 68.99 90.02 69.31 90.06 69.58 90.12 69.82 90.16 70.05 90.19 70.24 90.23 70.41 90.25 70.58 90.29 70.73 90.31 69.77 94.58 69.77 94.58 69.77 94.58"/><polyline class="cls-4" points="69.77 94.58 69.77 94.58 69.5 94.56 69.24 94.52 68.99 94.48 68.75 94.44 68.52 94.41 68.28 94.37 68.03 94.33 67.77 94.29 67.5 94.25 67.2 94.23 66.86 94.22 66.5 94.2 66.1 94.2 65.67 94.22 65.18 94.25 64.63 94.29 64.63 94.29 64.25 94.35 63.89 94.41 63.57 94.52 63.29 94.63 63.02 94.76 62.78 94.92 62.59 95.1 62.42 95.27 62.31 95.48 62.21 95.69 62.17 95.92 62.17 96.14 62.23 96.39 62.31 96.63 62.46 96.88 62.65 97.12 62.65 97.12 63.02 97.48 63.48 97.77 64.01 98.01 64.57 98.22 65.18 98.41 65.8 98.62 66.42 98.84 67.03 99.09 67.59 99.41 68.12 99.81 68.6 100.28 68.99 100.86 69.3 101.58 69.48 102.43 69.56 103.45 69.48 104.64 69.48 104.64 69.35 105.53 69.13 106.3 68.82 107.02 68.44 107.64 68.01 108.19 67.52 108.66 66.99 109.08 66.41 109.44 65.8 109.72 65.18 109.97 64.54 110.16 63.88 110.31 63.23 110.42 62.61 110.48 61.99 110.52 61.4 110.53 61.4 110.53 60.59 110.53 59.83 110.52 59.17 110.52 58.55 110.5 57.98 110.48 57.47 110.44 57.02 110.4 56.59 110.34 56.19 110.31 55.83 110.23 55.47 110.17 55.15 110.08 54.83 110 54.53 109.89 54.22 109.78 53.9 109.67 54.75 105.49 54.75 105.49 54.92 105.53 55.13 105.58 55.4 105.66 55.72 105.74 56.06 105.81 56.43 105.89 56.85 105.98 57.3 106.06 57.77 106.13 58.27 106.21 58.77 106.27 59.3 106.32 59.85 106.34 60.4 106.36 60.95 106.36 61.49 106.34 61.49 106.34 62.04 106.23 62.48 106.08 62.82 105.87 63.08 105.6 63.27 105.34 63.42 105.04 63.52 104.73 63.59 104.45 63.59 104.45 63.63 103.9 63.46 103.43 63.14 103.05 62.67 102.73 62.1 102.45 61.44 102.17 60.7 101.9 59.97 101.6 59.21 101.26 58.49 100.86 57.83 100.37 57.23 99.79 56.75 99.07 56.41 98.22 56.24 97.2 56.26 95.99 56.26 95.99 56.36 95.25 56.49 94.56 56.68 93.91 56.91 93.31 57.21 92.74 57.55 92.25 57.94 91.78 58.42 91.36 58.96 91 59.57 90.7 60.25 90.42 61 90.21 61.85 90.04 62.78 89.91 63.8 89.83 64.91 89.81 64.91 89.81 65.61 89.81 66.25 89.83 66.84 89.85 67.37 89.87 67.84 89.91 68.28 89.95 68.65 89.98 68.99 90.02 69.31 90.06 69.58 90.12 69.82 90.16 70.05 90.19 70.24 90.23 70.41 90.25 70.58 90.29 70.73 90.31 69.77 94.58"/><polygon class="cls-1" points="74.24 85.64 79.47 85.64 78.7 90.21 81.85 90.21 81.17 94.48 77.85 94.39 76.04 104.92 76.02 105.3 76.11 105.62 76.3 105.87 76.55 106.08 76.89 106.21 77.27 106.32 77.68 106.4 78.13 106.44 78.55 106.42 78.93 106.38 79.27 106.32 79.57 106.25 79.81 106.17 79.98 106.11 80.1 106.08 80.14 106.06 79.47 109.57 79.34 109.67 79.21 109.74 79.08 109.82 78.95 109.89 78.81 109.95 78.66 110 78.49 110.06 78.32 110.12 78.13 110.17 77.94 110.21 77.72 110.25 77.49 110.29 77.25 110.33 76.96 110.36 76.66 110.4 76.34 110.44 74.9 110.44 74.15 110.38 73.49 110.31 72.88 110.19 72.37 110.06 71.94 109.89 71.58 109.7 71.26 109.48 71.01 109.23 70.83 108.97 70.69 108.64 70.6 108.32 70.54 107.97 70.52 107.57 70.52 107.15 70.58 106.72 70.64 106.25 74.24 85.64 74.24 85.64 74.24 85.64"/><polyline class="cls-4" points="74.24 85.64 79.47 85.64 78.7 90.21 81.85 90.21 81.17 94.48 77.85 94.39 76.04 104.92 76.04 104.92 76.02 105.3 76.11 105.62 76.3 105.87 76.55 106.08 76.89 106.21 77.27 106.32 77.68 106.4 78.13 106.44 78.13 106.44 78.55 106.42 78.93 106.38 79.27 106.32 79.57 106.25 79.81 106.17 79.98 106.11 80.1 106.08 80.14 106.06 79.47 109.57 79.47 109.57 79.34 109.67 79.21 109.74 79.08 109.82 78.95 109.89 78.81 109.95 78.66 110 78.49 110.06 78.32 110.12 78.13 110.17 77.94 110.21 77.72 110.25 77.49 110.29 77.25 110.33 76.96 110.36 76.66 110.4 76.34 110.44 74.9 110.44 74.9 110.44 74.15 110.38 73.49 110.31 72.88 110.19 72.37 110.06 71.94 109.89 71.58 109.7 71.26 109.48 71.01 109.23 70.83 108.97 70.69 108.64 70.6 108.32 70.54 107.97 70.52 107.57 70.52 107.15 70.58 106.72 70.64 106.25 74.24 85.64"/><polygon class="cls-1" points="86.03 101.6 85.97 101.92 85.95 102.26 85.99 102.62 86.07 102.98 86.2 103.34 86.35 103.68 86.56 104.04 86.78 104.36 87.05 104.68 87.33 104.96 87.63 105.25 87.97 105.47 88.31 105.68 88.69 105.85 89.07 105.98 89.45 106.06 89.94 106.13 90.41 106.19 90.9 106.25 91.39 106.28 91.88 106.3 92.39 106.3 92.88 106.28 93.39 106.25 93.9 106.17 94.41 106.08 94.94 105.96 95.45 105.79 95.98 105.58 96.53 105.36 97.06 105.06 97.61 104.73 96.85 109.38 96.55 109.53 96.25 109.68 95.94 109.8 95.66 109.91 95.38 110 95.08 110.1 94.77 110.17 94.45 110.23 94.11 110.29 93.73 110.33 93.34 110.36 92.9 110.4 92.41 110.42 91.9 110.42 91.32 110.44 90.69 110.44 89.77 110.42 88.82 110.33 87.88 110.19 86.94 109.97 86.01 109.68 85.12 109.32 84.27 108.85 83.48 108.31 82.74 107.66 82.1 106.89 81.55 106.02 81.1 105.02 80.78 103.9 80.57 102.64 80.51 101.24 80.61 99.69 80.68 99.09 80.8 98.39 80.95 97.65 81.16 96.86 81.44 96.05 81.78 95.24 82.21 94.41 82.74 93.61 83.35 92.86 84.08 92.14 84.91 91.5 85.86 90.93 86.95 90.46 88.18 90.12 89.54 89.89 91.07 89.81 91.81 89.83 92.58 89.91 93.36 90.04 94.13 90.23 94.89 90.51 95.62 90.85 96.3 91.31 96.93 91.84 97.49 92.48 97.96 93.23 98.34 94.1 98.61 95.1 98.76 96.24 98.78 97.52 98.64 98.96 98.36 100.54 98.27 101.69 84.5 101.69 85.37 97.97 93.64 97.97 93.68 97.5 93.66 97.05 93.62 96.63 93.55 96.25 93.41 95.9 93.28 95.58 93.09 95.29 92.9 95.03 92.68 94.8 92.43 94.61 92.15 94.44 91.86 94.29 91.56 94.18 91.26 94.1 90.94 94.05 90.6 94.01 90.24 94.03 89.9 94.08 89.58 94.16 89.26 94.27 88.94 94.42 88.65 94.59 88.37 94.8 88.13 95.03 87.88 95.29 87.65 95.58 87.44 95.88 87.28 96.2 87.11 96.54 86.97 96.92 86.86 97.29 86.78 97.69 86.03 101.6 86.03 101.6 86.03 101.6"/><polyline class="cls-4" points="86.03 101.6 86.03 101.6 85.97 101.92 85.95 102.26 85.99 102.62 86.07 102.98 86.2 103.34 86.35 103.68 86.56 104.04 86.78 104.36 87.05 104.68 87.33 104.96 87.63 105.25 87.97 105.47 88.31 105.68 88.69 105.85 89.07 105.98 89.45 106.06 89.45 106.06 89.94 106.13 90.41 106.19 90.9 106.25 91.39 106.28 91.88 106.3 92.39 106.3 92.88 106.28 93.39 106.25 93.9 106.17 94.41 106.08 94.94 105.96 95.45 105.79 95.98 105.58 96.53 105.36 97.06 105.06 97.61 104.73 96.85 109.38 96.85 109.38 96.55 109.53 96.25 109.68 95.94 109.8 95.66 109.91 95.38 110 95.08 110.1 94.77 110.17 94.45 110.23 94.11 110.29 93.73 110.33 93.34 110.36 92.9 110.4 92.41 110.42 91.9 110.42 91.32 110.44 90.69 110.44 90.69 110.44 89.77 110.42 88.82 110.33 87.88 110.19 86.94 109.97 86.01 109.68 85.12 109.32 84.27 108.85 83.48 108.31 82.74 107.66 82.1 106.89 81.55 106.02 81.1 105.02 80.78 103.9 80.57 102.64 80.51 101.24 80.61 99.69 80.61 99.69 80.68 99.09 80.8 98.39 80.95 97.65 81.16 96.86 81.44 96.05 81.78 95.24 82.21 94.41 82.74 93.61 83.35 92.86 84.08 92.14 84.91 91.5 85.86 90.93 86.95 90.46 88.18 90.12 89.54 89.89 91.07 89.81 91.07 89.81 91.81 89.83 92.58 89.91 93.36 90.04 94.13 90.23 94.89 90.51 95.62 90.85 96.3 91.31 96.93 91.84 97.49 92.48 97.96 93.23 98.34 94.1 98.61 95.1 98.76 96.24 98.78 97.52 98.64 98.96 98.36 100.54 98.27 101.69 84.5 101.69 85.37 97.97 93.64 97.97 93.64 97.97 93.68 97.5 93.66 97.05 93.62 96.63 93.55 96.25 93.41 95.9 93.28 95.58 93.09 95.29 92.9 95.03 92.68 94.8 92.43 94.61 92.15 94.44 91.86 94.29 91.56 94.18 91.26 94.1 90.94 94.05 90.6 94.01 90.6 94.01 90.24 94.03 89.9 94.08 89.58 94.16 89.26 94.27 88.94 94.42 88.65 94.59 88.37 94.8 88.13 95.03 87.88 95.29 87.65 95.58 87.44 95.88 87.28 96.2 87.11 96.54 86.97 96.92 86.86 97.29 86.78 97.69 86.03 101.6"/><polygon class="cls-1" points="131.07 91.34 130.83 91.21 130.58 91.1 130.32 90.97 130.03 90.83 129.75 90.72 129.43 90.61 129.11 90.5 128.77 90.38 128.41 90.29 128.05 90.21 127.65 90.14 127.26 90.08 126.82 90.04 126.39 90 125.94 90 125.46 90 124.99 90 124.5 90.04 123.99 90.1 123.46 90.19 122.93 90.34 122.4 90.55 121.87 90.82 121.34 91.16 120.84 91.57 120.34 92.06 119.87 92.67 119.42 93.37 119 94.2 118.61 95.14 118.25 96.2 117.95 97.41 117.83 98.09 117.76 98.75 117.72 99.41 117.74 100.05 117.8 100.69 117.93 101.3 118.1 101.86 118.31 102.43 118.59 102.94 118.93 103.43 119.32 103.87 119.78 104.26 120.29 104.6 120.87 104.89 121.52 105.13 122.23 105.3 122.48 105.36 122.76 105.42 123.1 105.45 123.48 105.49 123.89 105.53 124.33 105.53 124.8 105.53 125.27 105.49 125.77 105.43 126.26 105.34 126.73 105.21 127.2 105.06 127.67 104.85 128.11 104.6 128.5 104.3 128.88 103.96 128.03 109 127.92 109.1 127.81 109.21 127.65 109.34 127.48 109.46 127.28 109.61 127.01 109.74 126.71 109.87 126.37 109.99 125.94 110.12 125.44 110.21 124.88 110.29 124.22 110.36 123.48 110.4 122.63 110.42 121.67 110.4 120.61 110.34 119.74 110.25 118.87 110.06 118 109.78 117.13 109.4 116.3 108.95 115.51 108.38 114.75 107.72 114.06 106.96 113.43 106.11 112.9 105.17 112.45 104.11 112.11 102.96 111.88 101.69 111.81 100.35 111.84 98.88 112.05 97.31 112.2 96.54 112.37 95.78 112.56 95.05 112.75 94.35 112.96 93.69 113.2 93.03 113.45 92.4 113.72 91.82 114 91.23 114.28 90.68 114.6 90.16 114.94 89.66 115.28 89.19 115.66 88.74 116.04 88.32 116.44 87.93 116.87 87.55 117.3 87.19 117.76 86.87 118.23 86.57 118.74 86.28 119.25 86.04 119.78 85.81 120.33 85.6 120.91 85.42 121.5 85.26 122.1 85.13 122.74 85.02 123.39 84.92 124.06 84.85 124.75 84.81 125.46 84.79 126.07 84.81 126.65 84.85 127.22 84.9 127.79 84.98 128.31 85.06 128.82 85.17 129.31 85.26 129.77 85.38 130.2 85.49 130.58 85.6 130.94 85.72 131.24 85.83 131.51 85.92 131.73 86 131.9 86.08 132.02 86.11 131.07 91.34 131.07 91.34 131.07 91.34"/><polyline class="cls-4" points="131.07 91.34 131.07 91.34 130.83 91.21 130.58 91.1 130.32 90.97 130.03 90.83 129.75 90.72 129.43 90.61 129.11 90.5 128.77 90.38 128.41 90.29 128.05 90.21 127.65 90.14 127.26 90.08 126.82 90.04 126.39 90 125.94 90 125.46 90 125.46 90 124.99 90 124.5 90.04 123.99 90.1 123.46 90.19 122.93 90.34 122.4 90.55 121.87 90.82 121.34 91.16 120.84 91.57 120.34 92.06 119.87 92.67 119.42 93.37 119 94.2 118.61 95.14 118.25 96.2 117.95 97.41 117.95 97.41 117.83 98.09 117.76 98.75 117.72 99.41 117.74 100.05 117.8 100.69 117.93 101.3 118.1 101.86 118.31 102.43 118.59 102.94 118.93 103.43 119.32 103.87 119.78 104.26 120.29 104.6 120.87 104.89 121.52 105.13 122.23 105.3 122.23 105.3 122.48 105.36 122.76 105.42 123.1 105.45 123.48 105.49 123.89 105.53 124.33 105.53 124.8 105.53 125.27 105.49 125.77 105.43 126.26 105.34 126.73 105.21 127.2 105.06 127.67 104.85 128.11 104.6 128.5 104.3 128.88 103.96 128.03 109 128.03 109 127.92 109.1 127.81 109.21 127.65 109.34 127.48 109.46 127.28 109.61 127.01 109.74 126.71 109.87 126.37 109.99 125.94 110.12 125.44 110.21 124.88 110.29 124.22 110.36 123.48 110.4 122.63 110.42 121.67 110.4 120.61 110.34 120.61 110.34 119.74 110.25 118.87 110.06 118 109.78 117.13 109.4 116.3 108.95 115.51 108.38 114.75 107.72 114.06 106.96 113.43 106.11 112.9 105.17 112.45 104.11 112.11 102.96 111.88 101.69 111.81 100.35 111.84 98.88 112.05 97.31 112.05 97.31 112.2 96.54 112.37 95.78 112.56 95.05 112.75 94.35 112.96 93.69 113.2 93.03 113.45 92.4 113.72 91.82 114 91.23 114.28 90.68 114.6 90.16 114.94 89.66 115.28 89.19 115.66 88.74 116.04 88.32 116.44 87.93 116.87 87.55 117.3 87.19 117.76 86.87 118.23 86.57 118.74 86.28 119.25 86.04 119.78 85.81 120.33 85.6 120.91 85.42 121.5 85.26 122.1 85.13 122.74 85.02 123.39 84.92 124.06 84.85 124.75 84.81 125.46 84.79 125.46 84.79 126.07 84.81 126.65 84.85 127.22 84.9 127.79 84.98 128.31 85.06 128.82 85.17 129.31 85.26 129.77 85.38 130.2 85.49 130.58 85.6 130.94 85.72 131.24 85.83 131.51 85.92 131.73 86 131.9 86.08 132.02 86.11 131.07 91.34"/><polygon class="cls-1" points="177.57 110.44 172.34 110.44 172.72 108.34 172.72 108.15 172.41 108.53 172.09 108.87 171.77 109.17 171.43 109.44 171.09 109.68 170.75 109.89 170.41 110.06 170.05 110.23 169.69 110.36 169.34 110.46 168.98 110.55 168.6 110.61 168.22 110.67 167.86 110.7 167.48 110.72 167.11 110.72 166.13 110.65 165.22 110.44 164.39 110.12 163.63 109.68 162.95 109.14 162.35 108.49 161.82 107.8 161.37 107 160.99 106.15 160.69 105.26 160.48 104.34 160.33 103.38 160.27 102.41 160.29 101.43 160.38 100.47 160.55 99.5 160.84 98.39 161.18 97.33 161.57 96.37 162.04 95.46 162.54 94.61 163.1 93.86 163.69 93.18 164.31 92.55 164.97 92.01 165.67 91.53 166.39 91.12 167.11 90.8 167.86 90.53 168.62 90.36 169.37 90.25 170.15 90.21 170.69 90.23 171.22 90.29 171.72 90.38 172.17 90.51 172.6 90.67 172.98 90.83 173.36 91.04 173.7 91.25 174 91.48 174.28 91.72 174.53 91.97 174.76 92.21 174.94 92.46 175.12 92.7 175.27 92.93 175.38 93.16 175.38 93.16 176.7 85.74 181.84 85.74 177.57 110.44 177.57 110.44 177.57 110.44"/><polyline class="cls-4" points="177.57 110.44 172.34 110.44 172.72 108.34 172.72 108.15 172.72 108.15 172.41 108.53 172.09 108.87 171.77 109.17 171.43 109.44 171.09 109.68 170.75 109.89 170.41 110.06 170.05 110.23 169.69 110.36 169.34 110.46 168.98 110.55 168.6 110.61 168.22 110.67 167.86 110.7 167.48 110.72 167.11 110.72 167.11 110.72 166.13 110.65 165.22 110.44 164.39 110.12 163.63 109.68 162.95 109.14 162.35 108.49 161.82 107.8 161.37 107 160.99 106.15 160.69 105.26 160.48 104.34 160.33 103.38 160.27 102.41 160.29 101.43 160.38 100.47 160.55 99.5 160.55 99.5 160.84 98.39 161.18 97.33 161.57 96.37 162.04 95.46 162.54 94.61 163.1 93.86 163.69 93.18 164.31 92.55 164.97 92.01 165.67 91.53 166.39 91.12 167.11 90.8 167.86 90.53 168.62 90.36 169.37 90.25 170.15 90.21 170.15 90.21 170.69 90.23 171.22 90.29 171.72 90.38 172.17 90.51 172.6 90.67 172.98 90.83 173.36 91.04 173.7 91.25 174 91.48 174.28 91.72 174.53 91.97 174.76 92.21 174.94 92.46 175.12 92.7 175.27 92.93 175.38 93.16 175.38 93.16 176.7 85.74 181.84 85.74 177.57 110.44"/><polygon class="cls-2" points="169.01 105.87 169.54 105.83 170.03 105.72 170.49 105.58 170.92 105.38 171.32 105.15 171.7 104.87 172.06 104.55 172.38 104.21 172.66 103.83 172.92 103.41 173.17 102.98 173.38 102.53 173.57 102.05 173.72 101.56 173.85 101.05 173.94 100.54 174.04 100.01 174.09 99.47 174.09 98.96 174.08 98.43 174.02 97.94 173.94 97.46 173.81 97.01 173.66 96.58 173.47 96.2 173.25 95.84 173 95.54 172.72 95.27 172.4 95.05 172.06 94.9 171.7 94.8 171.3 94.76 170.79 94.8 170.32 94.88 169.88 95.03 169.45 95.22 169.07 95.46 168.69 95.77 168.37 96.08 168.05 96.44 167.77 96.86 167.5 97.29 167.26 97.75 167.05 98.24 166.86 98.75 166.71 99.26 166.56 99.81 166.45 100.35 166.35 101.19 166.39 102.09 166.52 103.02 166.77 103.9 167.15 104.68 167.64 105.3 168.26 105.72 169.01 105.87 169.01 105.87 169.01 105.87"/><polygon class="cls-1" points="53.03 106.25 52.28 110.44 47.52 110.44 47.65 109.67 47.75 108.97 47.82 108.44 47.9 108.15 47.63 108.46 47.33 108.76 46.97 109.04 46.58 109.31 46.12 109.57 45.65 109.8 45.16 110.02 44.65 110.21 44.1 110.38 43.55 110.52 43.01 110.63 42.44 110.7 41.89 110.74 41.34 110.76 40.81 110.7 40.3 110.63 39.64 110.46 39.04 110.27 38.51 110.02 38.04 109.74 37.62 109.44 37.24 109.1 36.94 108.74 36.68 108.36 36.45 107.97 36.26 107.55 36.11 107.13 36 106.72 35.92 106.28 35.87 105.85 35.83 105.43 35.83 105.02 35.88 104.28 36 103.58 36.19 102.92 36.43 102.28 36.73 101.68 37.08 101.13 37.47 100.6 37.92 100.13 38.4 99.69 38.93 99.3 39.47 98.94 40.04 98.64 40.65 98.37 41.27 98.16 41.91 97.99 42.57 97.88 42.61 97.88 42.7 97.86 42.84 97.84 43.04 97.82 43.27 97.78 43.53 97.77 43.82 97.73 44.14 97.69 44.46 97.65 44.78 97.61 45.12 97.6 45.42 97.56 45.73 97.54 46.01 97.52 46.27 97.5 46.48 97.5 46.91 97.5 47.37 97.52 47.78 97.54 48.2 97.54 48.54 97.56 48.8 97.58 48.99 97.6 49.05 97.6 49.09 97.46 49.2 97.12 49.29 96.73 49.33 96.37 49.26 95.95 49.09 95.58 48.86 95.24 48.56 94.95 48.2 94.71 47.8 94.54 47.35 94.42 46.86 94.39 46.33 94.37 45.76 94.35 45.18 94.35 44.57 94.37 43.95 94.41 43.34 94.46 42.74 94.52 42.16 94.59 41.59 94.67 41.04 94.76 40.55 94.86 40.1 94.95 39.68 95.07 39.34 95.18 39.08 95.31 38.87 95.42 40.21 90.87 40.63 90.7 41.04 90.55 41.49 90.42 41.95 90.33 42.4 90.23 42.89 90.16 43.38 90.08 43.89 90.04 44.42 90 44.97 89.98 45.54 89.97 46.12 89.97 46.73 89.97 47.35 89.97 48.01 89.98 48.67 90 49.2 90.04 49.77 90.14 50.35 90.27 50.96 90.44 51.54 90.67 52.11 90.93 52.67 91.25 53.2 91.61 53.68 92.03 54.09 92.48 54.47 92.99 54.75 93.56 54.94 94.16 55.05 94.8 55.05 95.52 54.94 96.28 53.03 106.25 53.03 106.25 53.03 106.25"/><polyline class="cls-4" points="53.03 106.25 52.28 110.44 47.52 110.44 47.52 110.44 47.65 109.67 47.75 108.97 47.82 108.44 47.9 108.15 47.9 108.15 47.63 108.46 47.33 108.76 46.97 109.04 46.58 109.31 46.12 109.57 45.65 109.8 45.16 110.02 44.65 110.21 44.1 110.38 43.55 110.52 43.01 110.63 42.44 110.7 41.89 110.74 41.34 110.76 40.81 110.7 40.3 110.63 40.3 110.63 39.64 110.46 39.04 110.27 38.51 110.02 38.04 109.74 37.62 109.44 37.24 109.1 36.94 108.74 36.68 108.36 36.45 107.97 36.26 107.55 36.11 107.13 36 106.72 35.92 106.28 35.87 105.85 35.83 105.43 35.83 105.02 35.83 105.02 35.88 104.28 36 103.58 36.19 102.92 36.43 102.28 36.73 101.68 37.08 101.13 37.47 100.6 37.92 100.13 38.4 99.69 38.93 99.3 39.47 98.94 40.04 98.64 40.65 98.37 41.27 98.16 41.91 97.99 42.57 97.88 42.57 97.88 42.61 97.88 42.7 97.86 42.84 97.84 43.04 97.82 43.27 97.78 43.53 97.77 43.82 97.73 44.14 97.69 44.46 97.65 44.78 97.61 45.12 97.6 45.42 97.56 45.73 97.54 46.01 97.52 46.27 97.5 46.48 97.5 46.48 97.5 46.91 97.5 47.37 97.52 47.78 97.54 48.2 97.54 48.54 97.56 48.8 97.58 48.99 97.6 49.05 97.6 49.05 97.6 49.09 97.46 49.2 97.12 49.29 96.73 49.33 96.37 49.33 96.37 49.26 95.95 49.09 95.58 48.86 95.24 48.56 94.95 48.2 94.71 47.8 94.54 47.35 94.42 46.86 94.39 46.86 94.39 46.33 94.37 45.76 94.35 45.18 94.35 44.57 94.37 43.95 94.41 43.34 94.46 42.74 94.52 42.16 94.59 41.59 94.67 41.04 94.76 40.55 94.86 40.1 94.95 39.68 95.07 39.34 95.18 39.08 95.31 38.87 95.42 40.21 90.87 40.21 90.87 40.63 90.7 41.04 90.55 41.49 90.42 41.95 90.33 42.4 90.23 42.89 90.16 43.38 90.08 43.89 90.04 44.42 90 44.97 89.98 45.54 89.97 46.12 89.97 46.73 89.97 47.35 89.97 48.01 89.98 48.67 90 48.67 90 49.2 90.04 49.77 90.14 50.35 90.27 50.96 90.44 51.54 90.67 52.11 90.93 52.67 91.25 53.2 91.61 53.68 92.03 54.09 92.48 54.47 92.99 54.75 93.56 54.94 94.16 55.05 94.8 55.05 95.52 54.94 96.28 53.03 106.25"/><polygon class="cls-3" points="48.48 101.32 48.46 101.22 48.39 101.13 48.27 101.07 48.09 101.03 47.88 101 47.63 100.98 47.35 100.98 47.07 100.98 46.76 101 46.44 101.03 46.14 101.07 45.84 101.11 45.55 101.15 45.29 101.2 45.06 101.26 44.86 101.32 44.72 101.36 44.57 101.41 44.37 101.49 44.16 101.58 43.91 101.69 43.67 101.83 43.4 101.96 43.16 102.11 42.89 102.3 42.65 102.49 42.42 102.72 42.21 102.94 42.02 103.19 41.89 103.45 41.78 103.75 41.72 104.06 41.7 104.7 41.8 105.21 41.99 105.58 42.23 105.87 42.51 106.06 42.84 106.17 43.14 106.23 43.44 106.25 44.01 106.23 44.52 106.17 45.01 106.09 45.44 105.98 45.82 105.85 46.18 105.68 46.5 105.51 46.78 105.3 47.03 105.11 47.26 104.89 47.44 104.68 47.59 104.45 47.73 104.22 47.84 104 47.94 103.79 47.99 103.58 48.14 103.04 48.27 102.41 48.39 101.81 48.48 101.32 48.48 101.32 48.48 101.32"/><polygon class="cls-1" points="13.3 110.44 8.16 110.44 12.45 85.64 21.38 85.64 22.23 100.35 28.41 85.64 37.74 85.64 33.35 110.44 28.22 110.44 31.47 91.91 31.26 91.91 23.57 110.44 17.77 110.44 17.74 109.67 17.6 107.61 17.43 104.68 17.25 101.32 17.06 97.94 16.89 94.97 16.75 92.82 16.72 91.91 16.66 91.91 16.55 91.91 16.43 91.91 16.43 91.91 13.3 110.44 13.3 110.44 13.3 110.44"/><polyline class="cls-4" points="13.3 110.44 8.16 110.44 12.45 85.64 21.38 85.64 22.23 100.35 28.41 85.64 37.74 85.64 33.35 110.44 28.22 110.44 31.47 91.91 31.26 91.91 23.57 110.44 17.77 110.44 17.77 110.44 17.74 109.67 17.6 107.61 17.43 104.68 17.25 101.32 17.06 97.94 16.89 94.97 16.75 92.82 16.72 91.91 16.72 91.91 16.66 91.91 16.55 91.91 16.43 91.91 16.43 91.91 13.3 110.44"/><polygon class="cls-1" points="146.77 106.25 145.99 110.44 141.25 110.44 141.29 109.67 141.31 108.98 141.31 108.47 141.35 108.25 141.1 108.53 140.82 108.81 140.48 109.08 140.1 109.34 139.7 109.59 139.25 109.82 138.78 110.04 138.31 110.23 137.79 110.38 137.27 110.53 136.74 110.63 136.21 110.7 135.66 110.74 135.13 110.76 134.62 110.7 134.11 110.63 133.43 110.46 132.83 110.27 132.3 110.02 131.81 109.74 131.39 109.44 131.03 109.1 130.73 108.74 130.47 108.36 130.24 107.97 130.07 107.55 129.92 107.13 129.82 106.72 129.75 106.28 129.69 105.85 129.66 105.43 129.66 105.02 129.69 104.28 129.81 103.58 129.98 102.92 130.22 102.28 130.5 101.68 130.86 101.13 131.26 100.6 131.69 100.13 132.19 99.69 132.7 99.3 133.24 98.94 133.83 98.64 134.41 98.37 135.04 98.16 135.66 97.99 136.3 97.88 136.34 97.88 136.44 97.86 136.57 97.84 136.76 97.82 137 97.78 137.27 97.77 137.55 97.73 137.85 97.69 138.17 97.65 138.51 97.61 138.83 97.6 139.16 97.56 139.46 97.54 139.72 97.52 139.99 97.5 140.19 97.5 140.65 97.5 141.1 97.52 141.53 97.54 141.95 97.54 142.31 97.56 142.61 97.58 142.78 97.6 142.86 97.6 142.9 97.46 142.95 97.12 143.01 96.73 143.05 96.37 142.97 95.95 142.82 95.58 142.57 95.24 142.29 94.95 141.95 94.71 141.55 94.54 141.14 94.42 140.69 94.39 140.16 94.37 139.59 94.35 139 94.35 138.4 94.37 137.78 94.41 137.17 94.46 136.57 94.52 135.98 94.59 135.42 94.67 134.87 94.76 134.38 94.86 133.92 94.95 133.51 95.07 133.17 95.18 132.9 95.31 132.7 95.42 134.02 90.87 134.43 90.7 134.87 90.55 135.3 90.42 135.75 90.33 136.23 90.23 136.7 90.16 137.19 90.08 137.7 90.04 138.23 90 138.78 89.98 139.32 89.97 139.91 89.97 140.5 89.97 141.1 89.97 141.74 89.98 142.38 90 142.91 90.04 143.48 90.14 144.06 90.27 144.67 90.44 145.25 90.67 145.84 90.93 146.41 91.25 146.94 91.61 147.41 92.03 147.84 92.48 148.22 92.99 148.5 93.56 148.71 94.16 148.84 94.8 148.84 95.52 148.75 96.28 146.77 106.25 146.77 106.25 146.77 106.25"/><polygon class="cls-1" points="145.99 110.57 146.1 110.46 146.88 106.27 146.65 106.23 145.88 110.42 145.99 110.31 145.99 110.57 146.09 110.55 146.1 110.46 145.99 110.57 145.99 110.57 145.99 110.57"/><polygon class="cls-1" points="141.14 110.44 141.25 110.57 145.99 110.57 145.99 110.31 141.25 110.31 141.37 110.44 141.14 110.44 141.12 110.57 141.25 110.57 141.14 110.44 141.14 110.44 141.14 110.44"/><polygon class="cls-1" points="141.44 108.32 141.27 108.17 141.19 108.47 141.18 108.98 141.18 109.67 141.14 110.44 141.37 110.44 141.4 109.67 141.44 108.98 141.42 108.47 141.42 108.32 141.25 108.17 141.44 108.32 141.44 108.32 141.44 108.32"/><polygon class="cls-1" points="134.09 110.74 134.09 110.74 134.62 110.82 135.13 110.87 135.66 110.86 136.21 110.82 136.76 110.74 137.29 110.65 137.81 110.5 138.34 110.34 138.81 110.16 139.31 109.93 139.76 109.7 140.16 109.44 140.55 109.17 140.89 108.91 141.19 108.61 141.44 108.32 141.25 108.17 141.01 108.46 140.74 108.72 140.4 108.98 140.04 109.25 139.65 109.48 139.19 109.7 138.74 109.93 138.27 110.12 137.78 110.27 137.25 110.42 136.72 110.52 136.21 110.59 135.66 110.63 135.13 110.65 134.62 110.59 134.13 110.52 134.13 110.52 134.09 110.74 134.09 110.74 134.09 110.74"/><polygon class="cls-1" points="129.52 105.02 129.52 105.02 129.54 105.43 129.58 105.85 129.64 106.3 129.71 106.74 129.81 107.15 129.96 107.59 130.13 108.02 130.37 108.42 130.64 108.81 130.94 109.17 131.32 109.53 131.75 109.83 132.24 110.14 132.79 110.38 133.41 110.57 134.09 110.74 134.13 110.52 133.45 110.34 132.87 110.16 132.36 109.91 131.87 109.65 131.47 109.34 131.13 109.02 130.83 108.66 130.56 108.31 130.35 107.91 130.18 107.51 130.03 107.11 129.94 106.7 129.86 106.27 129.81 105.85 129.77 105.43 129.79 105.02 129.79 105.02 129.52 105.02 129.52 105.02 129.52 105.02"/><polygon class="cls-1" points="136.3 97.77 136.3 97.77 135.64 97.88 135 98.05 134.38 98.26 133.77 98.52 133.19 98.82 132.62 99.2 132.11 99.6 131.62 100.05 131.17 100.52 130.77 101.05 130.39 101.62 130.11 102.24 129.86 102.89 129.69 103.56 129.58 104.28 129.52 105.02 129.79 105.02 129.81 104.28 129.92 103.6 130.09 102.96 130.34 102.32 130.62 101.73 130.96 101.2 131.35 100.67 131.77 100.2 132.26 99.79 132.77 99.39 133.3 99.05 133.89 98.75 134.45 98.48 135.08 98.28 135.68 98.11 136.3 97.99 136.3 97.99 136.3 97.77 136.3 97.77 136.3 97.77"/><polygon class="cls-1" points="140.19 97.37 140.19 97.37 139.99 97.37 139.72 97.41 139.46 97.43 139.16 97.44 138.83 97.48 138.51 97.5 138.17 97.54 137.85 97.58 137.55 97.61 137.27 97.65 137 97.67 136.76 97.71 136.57 97.73 136.42 97.75 136.34 97.77 136.3 97.77 136.3 97.99 136.34 97.99 136.45 97.97 136.57 97.95 136.76 97.94 137 97.9 137.27 97.88 137.55 97.84 137.85 97.8 138.17 97.77 138.51 97.73 138.83 97.71 139.16 97.67 139.46 97.65 139.72 97.63 139.99 97.63 140.19 97.63 140.19 97.63 140.19 97.37 140.19 97.37 140.19 97.37"/><polygon class="cls-1" points="142.74 97.58 142.86 97.48 142.78 97.48 142.61 97.46 142.31 97.44 141.95 97.41 141.53 97.41 141.1 97.41 140.65 97.37 140.19 97.37 140.19 97.63 140.65 97.63 141.1 97.63 141.53 97.67 141.95 97.67 142.31 97.67 142.61 97.69 142.78 97.71 142.86 97.71 142.97 97.61 142.86 97.71 142.95 97.73 142.97 97.61 142.74 97.58 142.74 97.58 142.74 97.58"/><polygon class="cls-1" points="142.93 96.37 142.91 96.37 142.9 96.73 142.84 97.11 142.78 97.44 142.74 97.58 142.97 97.61 143.01 97.48 143.06 97.14 143.12 96.73 143.18 96.37 143.16 96.37 142.93 96.37 142.93 96.37 142.93 96.37"/><polygon class="cls-1" points="140.69 94.5 140.69 94.52 141.12 94.54 141.52 94.65 141.89 94.82 142.22 95.05 142.48 95.31 142.71 95.63 142.86 95.97 142.93 96.37 143.16 96.37 143.08 95.93 142.93 95.52 142.67 95.16 142.37 94.86 142.01 94.59 141.59 94.42 141.16 94.31 140.69 94.25 140.69 94.27 140.69 94.5 140.69 94.5 140.69 94.5"/><polygon class="cls-1" points="132.58 95.41 132.77 95.52 132.96 95.42 133.21 95.29 133.53 95.18 133.94 95.07 134.4 94.97 134.89 94.88 135.44 94.78 135.98 94.71 136.57 94.63 137.17 94.58 137.78 94.52 138.4 94.48 139 94.48 139.59 94.48 140.16 94.48 140.69 94.5 140.69 94.27 140.16 94.25 139.59 94.22 139 94.22 138.4 94.25 137.78 94.29 137.17 94.35 136.57 94.41 135.98 94.48 135.4 94.56 134.85 94.65 134.36 94.75 133.91 94.84 133.49 94.95 133.13 95.07 132.85 95.2 132.62 95.33 132.81 95.44 132.58 95.41 132.58 95.41 132.58 95.41"/><polygon class="cls-1" points="133.98 90.76 133.91 90.85 132.58 95.41 132.81 95.44 134.13 90.89 134.06 90.99 133.98 90.76 133.92 90.78 133.91 90.85 133.98 90.76 133.98 90.76 133.98 90.76"/><polygon class="cls-1" points="142.38 89.89 142.38 89.89 141.74 89.85 141.1 89.83 140.5 89.83 139.91 89.83 139.32 89.83 138.78 89.87 138.23 89.89 137.7 89.93 137.19 89.97 136.68 90.04 136.21 90.12 135.74 90.21 135.28 90.31 134.83 90.44 134.4 90.59 133.98 90.76 134.06 90.99 134.47 90.82 134.91 90.67 135.32 90.53 135.77 90.44 136.25 90.34 136.72 90.27 137.19 90.19 137.7 90.16 138.23 90.12 138.78 90.1 139.32 90.1 139.91 90.1 140.5 90.1 141.1 90.1 141.74 90.12 142.38 90.12 142.38 90.12 142.38 89.89 142.38 89.89 142.38 89.89"/><polygon class="cls-1" points="148.86 96.29 148.86 96.29 148.96 95.52 148.96 94.8 148.82 94.14 148.62 93.52 148.31 92.93 147.94 92.4 147.48 91.93 147.01 91.52 146.46 91.16 145.9 90.82 145.29 90.55 144.71 90.33 144.08 90.16 143.5 90.02 142.91 89.93 142.38 89.89 142.38 90.12 142.91 90.16 143.46 90.25 144.05 90.38 144.63 90.55 145.22 90.78 145.78 91.04 146.35 91.34 146.86 91.7 147.33 92.12 147.75 92.55 148.13 93.05 148.39 93.59 148.6 94.18 148.73 94.8 148.73 95.52 148.64 96.25 148.64 96.25 148.86 96.29 148.86 96.29 148.86 96.29"/><polygon class="cls-1" points="146.88 106.27 146.88 106.27 148.86 96.29 148.64 96.25 146.65 106.23 146.65 106.23 146.88 106.27 146.88 106.27 146.88 106.27"/><polygon class="cls-2" points="142.2 101.32 142.16 101.2 142.08 101.11 141.95 101.05 141.76 101 141.55 100.98 141.31 100.96 141.03 100.96 140.74 100.98 140.44 101.02 140.14 101.05 139.84 101.09 139.55 101.13 139.27 101.19 139.02 101.22 138.78 101.28 138.59 101.32 138.46 101.34 138.31 101.39 138.12 101.45 137.91 101.53 137.66 101.64 137.44 101.75 137.17 101.88 136.93 102.05 136.68 102.22 136.44 102.43 136.23 102.64 136.02 102.89 135.85 103.15 135.72 103.43 135.6 103.73 135.55 104.06 135.53 104.7 135.62 105.21 135.77 105.58 136 105.87 136.28 106.06 136.61 106.17 136.93 106.23 137.25 106.25 137.81 106.23 138.34 106.17 138.83 106.08 139.27 105.94 139.68 105.79 140.04 105.62 140.38 105.43 140.69 105.21 140.95 105 141.18 104.75 141.38 104.53 141.55 104.28 141.69 104.06 141.78 103.83 141.86 103.6 141.91 103.39 141.99 102.87 142.08 102.32 142.16 101.79 142.2 101.32 142.2 101.32 142.2 101.32"/><polygon class="cls-1" points="181.1 107.85 181.14 107.42 181.29 106.91 181.56 106.45 181.88 106.06 182.27 105.74 182.73 105.51 183.22 105.36 183.75 105.3 184.27 105.36 184.76 105.51 185.22 105.74 185.62 106.06 185.94 106.45 186.2 106.91 186.35 107.42 186.39 107.85 185.82 107.85 185.8 107.51 185.69 107.1 185.5 106.72 185.26 106.4 184.95 106.13 184.59 105.94 184.18 105.81 183.75 105.77 183.31 105.81 182.9 105.94 182.54 106.13 182.24 106.4 181.99 106.72 181.8 107.1 181.69 107.51 181.65 107.85 181.1 107.85 181.1 107.85 181.1 107.85"/><polygon class="cls-1" points="182.8 107.85 182.8 106.72 183.84 106.72 184.07 106.74 184.27 106.78 184.43 106.83 184.56 106.91 184.65 107.02 184.73 107.13 184.76 107.27 184.78 107.4 184.76 107.57 184.73 107.7 184.67 107.81 184.63 107.85 183.84 107.85 183.92 107.83 184.05 107.81 184.16 107.78 184.25 107.74 184.33 107.68 184.37 107.63 184.41 107.53 184.41 107.4 184.39 107.3 184.35 107.23 184.29 107.19 184.24 107.15 184.14 107.13 184.05 107.11 183.95 107.11 183.84 107.11 183.27 107.11 183.27 107.85 182.8 107.85 182.8 107.85 182.8 107.85"/><polygon class="cls-1" points="181.1 107.85 181.08 107.97 181.14 108.51 181.29 109.02 181.56 109.48 181.88 109.85 182.27 110.17 182.73 110.42 183.22 110.57 183.75 110.63 184.27 110.57 184.76 110.42 185.22 110.17 185.62 109.85 185.94 109.48 186.2 109.02 186.35 108.51 186.41 107.97 186.39 107.85 185.82 107.85 185.84 107.97 185.8 108.42 185.69 108.83 185.5 109.19 185.26 109.51 184.95 109.78 184.59 109.99 184.18 110.12 183.75 110.16 183.31 110.12 182.9 109.99 182.54 109.78 182.24 109.51 181.99 109.19 181.8 108.83 181.69 108.42 181.65 107.97 181.65 107.85 181.1 107.85 181.1 107.85 181.1 107.85"/><polygon class="cls-1" points="182.8 107.85 182.8 109 183.27 109 183.27 108.06 183.75 108.06 184.31 109 184.69 109 184.12 108.06 184.25 108.06 184.39 108.02 184.5 107.98 184.59 107.91 184.63 107.85 183.84 107.85 183.75 107.87 183.27 107.87 183.27 107.85 182.8 107.85 182.8 107.85 182.8 107.85"/><path class="cls-4" d="M181.08,108h0l.06-.54.15-.51.26-.46.33-.39.39-.32.46-.23.49-.15.53-.06h0l.52.06.5.15.45.23.4.32.32.39.26.46.15.51.06.54h0l-.06.55-.15.51-.26.46-.32.37-.4.32-.45.25-.5.15-.52.06h0l-.53-.06-.49-.15-.46-.25-.39-.32-.33-.37-.26-.46-.15-.51-.06-.55m2.19,1h-.47v-2.28h1l.23,0,.2,0,.16,0,.13.08.09.11.08.11,0,.14v.13h0v.17l0,.13-.06.11-.07.1-.1.07-.11,0-.13,0h-.14l.57.94h-.38l-.56-.94h-.48V109m.48-1.13h0l.17,0,.13,0,.11,0,.1,0,.07-.06,0-.06,0-.09v-.13h0l0-.1,0-.07-.06,0,0,0-.1,0h-.87v.75h.48m0,2.29h0l.43,0,.42-.13.35-.21.31-.27.24-.32.19-.36.11-.41,0-.46h0l0-.45-.11-.41-.19-.38-.24-.32-.31-.27-.35-.19-.42-.13-.43,0h0l-.44,0-.41.13-.36.19-.31.27-.24.32-.19.38-.11.41,0,.45h0l0,.46.11.41.19.36.24.32.31.27.36.21.41.13.44,0"/><polygon class="cls-1" points="148.18 110.44 153.51 110.44 153.51 110.44 155.42 99.69 155.49 99.28 155.6 98.86 155.72 98.45 155.87 98.03 156.06 97.61 156.28 97.22 156.53 96.84 156.83 96.48 157.17 96.16 157.55 95.86 157.99 95.58 158.48 95.35 159.02 95.16 159.63 95.01 160.29 94.9 161.03 94.86 161.29 94.86 161.44 94.86 161.5 94.86 161.5 94.86 162.35 90 161.82 90.04 161.31 90.1 160.84 90.19 160.38 90.33 159.97 90.48 159.57 90.67 159.19 90.87 158.84 91.1 158.5 91.36 158.17 91.63 157.87 91.93 157.57 92.23 157.29 92.55 157 92.91 156.72 93.25 156.46 93.63 157.02 90.21 151.71 90.21 148.18 110.44 148.18 110.44 148.18 110.44 148.18 110.44"/><polyline class="cls-4" points="148.18 110.44 153.51 110.44 153.51 110.44 155.42 99.69 155.42 99.69 155.49 99.28 155.6 98.86 155.72 98.45 155.87 98.03 156.06 97.61 156.28 97.22 156.53 96.84 156.83 96.48 157.17 96.16 157.55 95.86 157.99 95.58 158.48 95.35 159.02 95.16 159.63 95.01 160.29 94.9 161.03 94.86 161.03 94.86 161.29 94.86 161.44 94.86 161.5 94.86 161.5 94.86 162.35 90 162.35 90 161.82 90.04 161.31 90.1 160.84 90.19 160.38 90.33 159.97 90.48 159.57 90.67 159.19 90.87 158.84 91.1 158.5 91.36 158.17 91.63 157.87 91.93 157.57 92.23 157.29 92.55 157 92.91 156.72 93.25 156.46 93.63 157.02 90.21 151.71 90.21 148.18 110.44 148.18 110.44"/><polygon class="cls-1" points="98.17 110.44 103.5 110.44 103.59 110.44 105.41 99.69 105.48 99.28 105.58 98.88 105.67 98.48 105.8 98.11 105.95 97.73 106.14 97.37 106.37 97.03 106.63 96.71 106.94 96.42 107.28 96.14 107.69 95.92 108.14 95.71 108.67 95.54 109.26 95.39 109.9 95.29 110.64 95.24 110.69 95.24 110.77 95.25 110.86 95.27 110.96 95.27 111.05 95.29 111.13 95.31 111.18 95.33 111.2 95.33 111.22 95.25 111.28 95.03 111.35 94.69 111.45 94.27 111.58 93.78 111.71 93.25 111.88 92.72 112.05 92.19 112.2 91.84 112.39 91.48 112.58 91.12 112.77 90.8 112.94 90.51 113.07 90.29 113.17 90.16 113.2 90.1 113.19 90.1 113.11 90.08 113.02 90.06 112.88 90.04 112.75 90.04 112.6 90.02 112.47 90 112.34 90 111.75 90.04 111.22 90.1 110.73 90.19 110.28 90.31 109.84 90.46 109.45 90.65 109.09 90.83 108.75 91.06 108.43 91.31 108.13 91.59 107.84 91.87 107.56 92.19 107.28 92.52 107.01 92.88 106.73 93.25 106.44 93.63 107.12 90.21 101.7 90.21 98.17 110.44 98.17 110.44 98.17 110.44 98.17 110.44"/><polyline class="cls-4" points="98.17 110.44 103.5 110.44 103.59 110.44 105.41 99.69 105.41 99.69 105.48 99.28 105.58 98.88 105.67 98.48 105.8 98.11 105.95 97.73 106.14 97.37 106.37 97.03 106.63 96.71 106.94 96.42 107.28 96.14 107.69 95.92 108.14 95.71 108.67 95.54 109.26 95.39 109.9 95.29 110.64 95.24 110.64 95.24 110.69 95.24 110.77 95.25 110.86 95.27 110.96 95.27 111.05 95.29 111.13 95.31 111.18 95.33 111.2 95.33 111.2 95.33 111.22 95.25 111.28 95.03 111.35 94.69 111.45 94.27 111.58 93.78 111.71 93.25 111.88 92.72 112.05 92.19 112.05 92.19 112.2 91.84 112.39 91.48 112.58 91.12 112.77 90.8 112.94 90.51 113.07 90.29 113.17 90.16 113.2 90.1 113.2 90.1 113.19 90.1 113.11 90.08 113.02 90.06 112.88 90.04 112.75 90.04 112.6 90.02 112.47 90 112.34 90 112.34 90 111.75 90.04 111.22 90.1 110.73 90.19 110.28 90.31 109.84 90.46 109.45 90.65 109.09 90.83 108.75 91.06 108.43 91.31 108.13 91.59 107.84 91.87 107.56 92.19 107.28 92.52 107.01 92.88 106.73 93.25 106.44 93.63 107.12 90.21 101.7 90.21 98.17 110.44 98.17 110.44"/><polygon class="cls-2" points="181.14 130.31 181.14 130.23 181.29 129.74 181.56 129.31 181.88 128.93 182.27 128.63 182.73 128.4 183.22 128.27 183.75 128.21 184.27 128.27 184.76 128.4 185.22 128.63 185.62 128.93 185.94 129.31 186.2 129.74 186.35 130.23 186.35 130.31 185.8 130.31 185.69 129.91 185.5 129.55 185.26 129.23 184.95 128.97 184.59 128.76 184.18 128.63 183.75 128.59 183.31 128.63 182.9 128.76 182.54 128.97 182.24 129.23 181.99 129.55 181.8 129.91 181.69 130.31 181.14 130.31 181.14 130.31 181.14 130.31"/><polygon class="cls-2" points="182.8 130.31 182.8 129.65 183.84 129.65 184.07 129.65 184.27 129.68 184.43 129.72 184.56 129.8 184.65 129.89 184.73 130 184.76 130.14 184.78 130.31 184.41 130.31 184.41 130.21 184.39 130.12 184.35 130.04 184.29 130 184.24 129.97 184.14 129.95 184.05 129.93 183.95 129.93 183.84 129.93 183.27 129.93 183.27 130.31 182.8 130.31 182.8 130.31 182.8 130.31"/><polygon class="cls-2" points="181.08 130.72 181.14 130.31 181.69 130.31 181.69 130.33 181.65 130.72 181.08 130.72 181.08 130.72 181.08 130.72"/><polygon class="cls-2" points="182.8 130.72 182.8 130.31 183.27 130.31 183.27 130.69 183.75 130.69 183.92 130.65 184.05 130.63 184.16 130.59 184.25 130.55 184.33 130.5 184.37 130.44 184.41 130.34 184.41 130.31 184.78 130.31 184.78 130.31 184.76 130.44 184.73 130.55 184.67 130.65 184.59 130.72 182.8 130.72 182.8 130.72 182.8 130.72"/><polygon class="cls-2" points="185.84 130.72 185.8 130.33 185.8 130.31 186.35 130.31 186.41 130.72 185.84 130.72 185.84 130.72 185.84 130.72"/><polygon class="cls-2" points="181.08 130.72 181.08 130.78 181.14 131.33 181.29 131.84 181.56 132.29 181.88 132.69 182.27 133.01 182.73 133.24 183.22 133.39 183.75 133.44 184.27 133.39 184.76 133.24 185.22 133.01 185.62 132.69 185.94 132.29 186.2 131.84 186.35 131.33 186.41 130.78 186.41 130.72 185.84 130.72 185.84 130.78 185.8 131.23 185.69 131.65 185.5 132.01 185.26 132.33 184.95 132.59 184.59 132.8 184.18 132.93 183.75 132.97 183.31 132.93 182.9 132.8 182.54 132.59 182.24 132.33 181.99 132.01 181.8 131.65 181.69 131.23 181.65 130.78 181.65 130.72 181.08 130.72 181.08 130.72 181.08 130.72"/><polygon class="cls-2" points="182.8 130.72 182.8 131.82 183.27 131.82 183.27 130.87 183.75 130.87 184.31 131.82 184.69 131.82 184.12 130.87 184.25 130.87 184.39 130.84 184.5 130.8 184.59 130.72 184.59 130.72 182.8 130.72 182.8 130.72 182.8 130.72"/></g></g></svg>